<?xml version="1.0" encoding="utf-8"?>
<!-- Generator: Adobe Illustrator 17.1.0, SVG Export Plug-In . SVG Version: 6.00 Build 0)  -->
<!DOCTYPE svg PUBLIC "-//W3C//DTD SVG 1.1//EN" "http://www.w3.org/Graphics/SVG/1.1/DTD/svg11.dtd">
<svg version="1.1" id="Capa_1" xmlns="http://www.w3.org/2000/svg" xmlns:xlink="http://www.w3.org/1999/xlink" x="0px" y="0px"
	 viewBox="0 0 24 24" enable-background="new 0 0 24 24" xml:space="preserve">
<path fill="#4B4B4B" d="M12,2c5.5,0,10,4.5,10,10s-4.5,10-10,10S2,17.5,2,12S6.5,2,12,2z M12,0C5.4,0,0,5.4,0,12s5.4,12,12,12
	s12-5.4,12-12S18.6,0,12,0z M17,15.5L13.4,12L17,8.4L15.5,7L12,10.6L8.4,7L7,8.5l3.6,3.6L7,15.6L8.5,17l3.6-3.6l3.6,3.6L17,15.5z"/>
</svg>
